<?xml version="1.0" encoding="utf-8"?>
<!-- Generator: Adobe Illustrator 25.0.1, SVG Export Plug-In . SVG Version: 6.00 Build 0)  -->
<svg version="1.1" id="レイヤー_1" xmlns="http://www.w3.org/2000/svg" xmlns:xlink="http://www.w3.org/1999/xlink" x="0px"
	 y="0px" viewBox="0 0 114.5 114.8" style="enable-background:new 0 0 114.5 114.8;" xml:space="preserve">
<style type="text/css">
	.st0{fill-rule:evenodd;clip-rule:evenodd;fill:#411E0A;}
</style>
<path class="st0" d="M34.3,92.1c-6.3,0.1-11.2,5.3-11.1,11.6c0.1,6.3,5.3,11.2,11.6,11.1c6.2-0.1,11.1-5.2,11.1-11.4l0,0
	C45.9,97.1,40.7,92,34.3,92.1z M0,0v14.2h11.2l20.1,41.4L23.8,69c-0.9,1.6-1.4,3.4-1.4,5.2c0.1,6.1,5.1,11,11.2,10.9h68.2V71H36.8
	c-0.8,4.1-0.5,2.7-0.5,2.7v-0.2l0.1-0.7l5.1-9h42.1c4.1,0,7.9-2.1,9.9-5.7l20.2-35.8c0.5-0.8,0.7-1.7,0.7-2.6c0-3.1-2.6-5.6-5.7-5.5
	H23.9L18.5,0L0,0L0,0z M92.5,92.1c-6.3,0.1-11.2,5.3-11.1,11.6s5.3,11.2,11.6,11.1c6.2-0.1,11.1-5.2,11.1-11.4l0,0
	C104,97.1,98.8,92,92.5,92.1z"/>
</svg>
