<svg xmlns="http://www.w3.org/2000/svg" width="114.4501" height="114.807" viewBox="0 0 114.4501 114.807"><defs><style>.a{fill:#fff;fill-rule:evenodd;}</style></defs><title>icon_cart_01</title><path class="a" d="M34.331,92.088a11.361,11.361,0,1,0,11.624,11.358h0A11.494,11.494,0,0,0,34.331,92.088ZM0,.002v14.2H11.176L31.294,55.651,23.75,69.028a10.2343,10.2343,0,0,0-1.4,5.242A11.05,11.05,0,0,0,33.526,85.19h68.185V70.99H36.801c-.775,4.09-.475,2.743-.475,2.743v-.179l.142-.69,5.086-8.973h42.1a11.282,11.282,0,0,0,9.889-5.686l20.2-35.833a4.93,4.93,0,0,0,.706-2.65,5.587,5.587,0,0,0-5.651-5.522H23.942L18.493,0H0ZM92.453,92.088a11.361,11.361,0,1,0,11.625,11.358h0A11.5,11.5,0,0,0,92.453,92.088Z"/></svg>