<svg xmlns="http://www.w3.org/2000/svg" width="200.438" height="200.438" viewBox="0 0 200.438 200.438">
  <defs>
    <style>
      .cls-1 {
        fill: #fff;
        fill-rule: evenodd;
      }
    </style>
  </defs>
  <path id="instagram.svg" class="cls-1" d="M699.882,176.6c26.8,0,29.973.1,40.556,0.585,9.785,0.446,15.1,2.082,18.636,3.455a33.235,33.235,0,0,1,19.047,19.048c1.375,3.537,3.01,8.851,3.456,18.636,0.483,10.583.585,13.758,0.585,40.555s-0.1,29.973-.585,40.555c-0.446,9.786-2.081,15.1-3.456,18.637a33.237,33.237,0,0,1-19.047,19.047c-3.537,1.374-8.851,3.009-18.636,3.456-10.582.483-13.756,0.585-40.556,0.585s-29.974-.1-40.554-0.585c-9.786-.447-15.1-2.082-18.637-3.456a33.243,33.243,0,0,1-19.048-19.047c-1.373-3.537-3.008-8.851-3.455-18.636-0.483-10.583-.585-13.758-0.585-40.556s0.1-29.972.585-40.554c0.447-9.786,2.082-15.1,3.455-18.637a33.248,33.248,0,0,1,19.048-19.048c3.537-1.373,8.851-3.009,18.637-3.455,10.582-.483,13.757-0.585,40.554-0.585m0-17.933c-27.216,0-30.628.116-41.317,0.6-10.666.487-17.95,2.181-24.325,4.659a51.234,51.234,0,0,0-29.308,29.308c-2.477,6.374-4.172,13.658-4.659,24.325-0.487,10.689-.6,14.1-0.6,41.317s0.116,30.629.6,41.318c0.487,10.666,2.182,17.951,4.659,24.325a51.234,51.234,0,0,0,29.308,29.308c6.375,2.478,13.659,4.172,24.325,4.659,10.689,0.487,14.1.6,41.317,0.6s30.629-.115,41.318-0.6c10.666-.487,17.951-2.181,24.325-4.659a51.24,51.24,0,0,0,29.309-29.308c2.477-6.374,4.171-13.659,4.657-24.325,0.488-10.689.6-14.1,0.6-41.318s-0.115-30.628-.6-41.317c-0.486-10.667-2.18-17.951-4.657-24.325a51.24,51.24,0,0,0-29.309-29.308c-6.374-2.478-13.659-4.172-24.325-4.659-10.689-.487-14.1-0.6-41.318-0.6h0Zm0,48.785a51.428,51.428,0,1,0,51.428,51.427A51.427,51.427,0,0,0,699.882,207.455Zm0,84.922a33.495,33.495,0,1,1,33.5-33.5A33.495,33.495,0,0,1,699.882,292.377Zm65.4-86.9a12,12,0,1,1-12-12A12,12,0,0,1,765.285,205.48Z" transform="translate(-599.656 -158.656)"/>
</svg>
