<svg xmlns="http://www.w3.org/2000/svg" width="215" height="214.906" viewBox="0 0 215 214.906">
  <defs>
    <style>
      .cls-1 {
        fill: #fff;
        fill-rule: evenodd;
      }
    </style>
  </defs>
  <path id="facebook.svg" class="cls-1" d="M576,271.086c0-59.711-48.129-108.116-107.5-108.116S361,211.375,361,271.086c0,53.964,39.311,98.692,90.7,106.8v-75.55H424.409V271.086H451.7V247.267c0-27.1,16.05-42.064,40.605-42.064a164.365,164.365,0,0,1,24.063,2.112v26.607H502.815c-13.353,0-17.518,8.333-17.518,16.883v20.281h29.814l-4.766,31.252H485.3v75.55C536.689,369.778,576,325.05,576,271.086Z" transform="translate(-361 -162.969)"/>
</svg>
