<svg xmlns="http://www.w3.org/2000/svg" width="215" height="215" viewBox="0 0 215 215">
  <defs>
    <style>
      .cls-1 {
        fill: #fff;
        fill-rule: evenodd;
      }
    </style>
  </defs>
  <path id="twitter.svg" class="cls-1" d="M941.5,144A107.5,107.5,0,1,0,1049,251.5,107.5,107.5,0,0,0,941.5,144Zm53.991,87.119q0.077,1.666.074,3.35c0,34.243-26.067,73.734-73.734,73.734a73.368,73.368,0,0,1-39.725-11.64,52.807,52.807,0,0,0,6.182.359,52,52,0,0,0,32.186-11.094,25.943,25.943,0,0,1-24.209-18,25.852,25.852,0,0,0,11.7-.444,25.927,25.927,0,0,1-20.791-25.407c0-.114,0-0.222.006-0.33a25.708,25.708,0,0,0,11.737,3.241,25.933,25.933,0,0,1-8.022-34.595,73.57,73.57,0,0,0,53.416,27.075,25.931,25.931,0,0,1,44.163-23.634,51.908,51.908,0,0,0,16.453-6.291,26.013,26.013,0,0,1-11.394,14.336,51.734,51.734,0,0,0,14.884-4.079A52.766,52.766,0,0,1,995.491,231.119Z" transform="translate(-834 -144)"/>
</svg>
