<svg xmlns="http://www.w3.org/2000/svg" width="107" height="47" viewBox="0 0 107 47">
  <metadata><?xpacket begin="﻿" id="W5M0MpCehiHzreSzNTczkc9d"?>
<x:xmpmeta xmlns:x="adobe:ns:meta/" x:xmptk="Adobe XMP Core 5.6-c140 79.160451, 2017/05/06-01:08:21        ">
   <rdf:RDF xmlns:rdf="http://www.w3.org/1999/02/22-rdf-syntax-ns#">
      <rdf:Description rdf:about=""/>
   </rdf:RDF>
</x:xmpmeta>
                                                                                                    
                                                                                                    
                                                                                                    
                                                                                                    
                                                                                                    
                                                                                                    
                                                                                                    
                                                                                                    
                                                                                                    
                                                                                                    
                                                                                                    
                                                                                                    
                                                                                                    
                                                                                                    
                                                                                                    
                                                                                                    
                                                                                                    
                                                                                                    
                                                                                                    
                                                                                                    
                           
<?xpacket end="w"?></metadata>
<defs>
    <style>
      .cls-1 {
        fill: #ffd900;
        fill-rule: evenodd;
      }
    </style>
  </defs>
  <path id="logo" class="cls-1" d="M84.327,65.388l13.5-14.4,2.946,1.916L88.692,65.61l13.689,15.831-4.235,1.646L84.417,66.459h-0.09V82.645H80V51.435h4.327V65.388Zm26.928,4.95A149.082,149.082,0,0,0,116.2,56.071h0.091c1.554,5.618,3.072,9.943,4.638,14.268h-9.671Zm3.968-18.9-12.715,31.21h4.2l3.342-9.186H121.95l3.2,9.186h5l-11.643-31.21h-3.29Zm17.36,0h4.327V79.522h12.967v3.123H132.583V51.435Zm24.632,3.12h5.746c8.211,0,12.085,4.5,12.085,11.459,0,9.14-4.236,13.509-13.017,13.509h-4.814V54.555Zm-4.323-3.12v31.21h9.275c11.049,0,17.646-6.2,17.646-16.541,0-7.493-4.365-14.669-16.939-14.669h-9.982Zm29.781,31.21V51.435H187v31.21h-4.328ZM98.215,88.954a4.882,4.882,0,0,0-2.789-.932,4.069,4.069,0,0,0-4.2,4.4,4.235,4.235,0,0,0,4.2,4.52,4.764,4.764,0,0,0,2.7-.8l0.582,0.885a6.34,6.34,0,0,1-3.361.978A5.356,5.356,0,0,1,89.6,92.449a5.6,5.6,0,0,1,5.945-5.494,5.21,5.21,0,0,1,3.292,1.083Zm17.457-.748h-3.784v4.06h3.71v1.071h-3.71v4.486h-1.479V87.137h5.263v1.07Zm6.179,0h-3.785v4.06h3.711v1.071h-3.711v4.486h-1.485V87.137h5.27v1.07Zm6.175,0h-3.781v3.451h3.706v1.067h-3.706v4.032h4.443v1.067h-5.92V87.137h5.258v1.07Zm6.421,0h-3.78v3.451h3.7v1.067h-3.7v4.032h4.441v1.067h-5.915V87.137h5.254v1.07Zm13.4,0h-3.786v4.06h3.711v1.071h-3.711v4.486h-1.479V87.137h5.265v1.07Zm2.1,5.4a50.9,50.9,0,0,0,1.693-4.883h0.035c0.528,1.922,1.053,3.4,1.582,4.883h-3.31Zm1.365-6.471-4.355,10.687h1.433l1.15-3.146h4.075l1.1,3.146h1.714l-3.993-10.687h-1.12Zm7.036,1.07h1.265a1.652,1.652,0,0,1,1.818,1.816,2.079,2.079,0,0,1-2.249,2.3h-0.834v-4.12Zm-1.483,9.617h1.483V93.4h1.571l2.468,4.611,1.5-.461L161.23,93a3.436,3.436,0,0,0,1.79-3.114c0-1.847-1.364-2.747-3.1-2.747h-3.054V97.824Zm19.314,0H174.7v-8.7h-0.035c-0.425,1.251-2.852,5.968-4.284,8.7h-0.6c-1.324-2.734-3.539-7.3-3.953-8.7H165.8v8.7h-1.226V87.137h1.593c1.371,2.84,2.746,5.695,4.1,8.7,1.512-3.007,3.021-5.862,4.517-8.7h1.392V97.824Zm-72.187-5.571,3.449-3.447a0.891,0.891,0,0,0-.306-1.549c-1.755-.637-4.246.13-6.128,2.011S98.359,93.641,99,95.4a0.883,0.883,0,0,0,1.541.3Zm0.5,0.5,3.447-3.448a0.889,0.889,0,0,1,1.547.3c0.639,1.754-.126,4.249-2.007,6.13s-4.375,2.645-6.133,2.01a0.889,0.889,0,0,1-.3-1.548Z" transform="translate(-80 -51)"/>
</svg>
